# xmcd
#
# Track frame offsets: 
#        150
#        8685
#        18451
#        29114
#        41685
#        53687
#        61046
#        74113
#        86563
#        105467
#        116744
#        132183
#        145256
#        162214
#        174814
#        185016
#        194359
#
# Disc length: 2731 seconds
#
# Revision: 0
# Processed by: cddbd v1.5.2PL0 Copyright (c) Steve Scherf et al.
# Submitted via: ExactAudioCopy v0.95b4
#
DISCID=e90aa911
DTITLE=The Silver Hearts - Our Precious City
DYEAR=2004
DGENRE=Folk/Rock
TTITLE0=force of habit
TTITLE1=forsaken rag
TTITLE2=danny
TTITLE3=blue van
TTITLE4=sinnerman vs. satan
TTITLE5=montreal house rag
TTITLE6=money in the jar
TTITLE7=it's gone
TTITLE8=heavenly heaven
TTITLE9=silver kings
TTITLE10=wow! look at jesus go
TTITLE11=good grief
TTITLE12=bad road
TTITLE13=highway on high
TTITLE14=buried gold
TTITLE15=darling i
TTITLE16=in the hollow of a tree
EXTD=
EXTT0=
EXTT1=
EXTT2=
EXTT3=
EXTT4=
EXTT5=
EXTT6=
EXTT7=
EXTT8=
EXTT9=
EXTT10=
EXTT11=
EXTT12=
EXTT13=
EXTT14=
EXTT15=
EXTT16=
PLAYORDER=
